<svg width="35" height="35" viewBox="0 0 35 35" fill="none" xmlns="http://www.w3.org/2000/svg">
<g clip-path="url(#clip0_7_9)">
<path d="M34 17.5C34 8.3873 26.6127 1 17.5 1C8.3873 1 1 8.3873 1 17.5C1 26.6127 8.3873 34 17.5 34C26.6127 34 34 26.6127 34 17.5Z" stroke="black" stroke-width="1.5"/>
<path d="M17.5167 13.6328C19.6262 13.6328 21.3672 15.3738 21.3672 17.4833C21.3672 19.6262 19.6262 21.3337 17.5167 21.3337C15.3739 21.3337 13.6662 19.6262 13.6662 17.4833C13.6662 15.3738 15.3739 13.6328 17.5167 13.6328ZM17.5167 19.9944C18.8894 19.9944 19.9944 18.8895 19.9944 17.4833C19.9944 16.1105 18.8894 15.0056 17.5167 15.0056C16.1105 15.0056 15.0055 16.1105 15.0055 17.4833C15.0055 18.8895 16.144 19.9944 17.5167 19.9944ZM22.4051 13.4988C22.4051 14.0011 22.0033 14.4029 21.5012 14.4029C20.9989 14.4029 20.5971 14.0011 20.5971 13.4988C20.5971 12.9967 20.9989 12.5949 21.5012 12.5949C22.0033 12.5949 22.4051 12.9967 22.4051 13.4988ZM24.9498 14.4029C25.0167 15.6417 25.0167 19.3583 24.9498 20.5971C24.8828 21.8024 24.615 22.8404 23.7444 23.7444C22.8739 24.615 21.8024 24.8828 20.5971 24.9498C19.3583 25.0167 15.6417 25.0167 14.4029 24.9498C13.1976 24.8828 12.1596 24.615 11.2555 23.7444C10.3851 22.8404 10.1172 21.8024 10.0501 20.5971C9.98329 19.3583 9.98329 15.6417 10.0501 14.4029C10.1172 13.1976 10.3851 12.1261 11.2555 11.2556C12.1596 10.385 13.1976 10.1172 14.4029 10.0502C15.6417 9.98326 19.3583 9.98326 20.5971 10.0502C21.8024 10.1172 22.8739 10.385 23.7444 11.2556C24.615 12.1261 24.8828 13.1976 24.9498 14.4029ZM23.3426 21.9029C23.7444 20.9319 23.644 18.5881 23.644 17.4833C23.644 16.4119 23.7444 14.0681 23.3426 13.0636C23.0748 12.4274 22.5726 11.8917 21.9364 11.6574C20.9319 11.2556 18.5882 11.356 17.5167 11.356C16.4119 11.356 14.068 11.2556 13.0971 11.6574C12.4274 11.9252 11.9251 12.4274 11.6573 13.0636C11.2555 14.0681 11.356 16.4119 11.356 17.4833C11.356 18.5881 11.2555 20.9319 11.6573 21.9029C11.9251 22.5726 12.4274 23.0748 13.0971 23.3426C14.068 23.7444 16.4119 23.644 17.5167 23.644C18.5882 23.644 20.9319 23.7444 21.9364 23.3426C22.5726 23.0748 23.1083 22.5726 23.3426 21.9029Z" fill="black"/>
</g>
<defs>
<clipPath id="clip0_7_9">
<rect width="35" height="35" fill="white"/>
</clipPath>
</defs>
</svg>
