<svg width="35" height="35" viewBox="0 0 35 35" fill="none" xmlns="http://www.w3.org/2000/svg">
<g clip-path="url(#clip0_7_13)">
<path d="M34 17.5C34 8.3873 26.6127 1 17.5 1C8.3873 1 1 8.3873 1 17.5C1 26.6127 8.3873 34 17.5 34C26.6127 34 34 26.6127 34 17.5Z" stroke="black" stroke-width="1.5"/>
<path d="M25.5537 13.3084C25.3037 14.3414 23.0537 17.4404 23.0537 17.4404C22.8663 17.7442 22.7725 17.896 23.0537 18.2303C23.1787 18.3822 25.5225 20.5697 25.8663 21.6026C26.0225 22.1192 25.7725 22.3622 25.2413 22.3622H23.3975C22.71 22.3622 22.4913 21.8457 21.2413 20.6304C20.1475 19.5974 19.6787 19.4456 19.3975 19.4456C18.835 19.4456 18.9287 19.6582 18.9287 21.6938C18.9287 22.1192 18.7725 22.3622 17.6163 22.3622C15.6787 22.3622 13.5225 21.2381 11.9913 19.1113C9.70996 15.982 9.08496 13.6426 9.08496 13.1565C9.08496 12.8831 9.20996 12.64 9.70996 12.64H11.5537C12.0225 12.64 12.21 12.8526 12.3975 13.3388C13.3037 15.8908 14.8037 18.1391 15.4287 18.1391C15.6787 18.1391 15.7725 18.0176 15.7725 17.4404V14.7971C15.71 13.5818 15.0537 13.4907 15.0537 13.0654C15.0537 12.8526 15.21 12.64 15.5225 12.64H18.3975C18.8037 12.64 18.9287 12.8526 18.9287 13.3084V16.8631C18.9287 17.2276 19.1163 17.3796 19.21 17.3796C19.46 17.3796 19.6475 17.2276 20.085 16.8327C21.3975 15.3744 22.335 13.1565 22.335 13.1565C22.46 12.8831 22.6787 12.64 23.1475 12.64H24.9913C25.5537 12.64 25.6475 12.9438 25.5537 13.3084Z" fill="black"/>
</g>
<defs>
<clipPath id="clip0_7_13">
<rect width="35" height="35" fill="white"/>
</clipPath>
</defs>
</svg>
