<svg width="35" height="35" viewBox="0 0 35 35" fill="none" xmlns="http://www.w3.org/2000/svg">
<g clip-path="url(#clip0_7_6)">
<path d="M34 17.5C34 8.3873 26.6127 1 17.5 1C8.3873 1 1 8.3873 1 17.5C1 26.6127 8.3873 34 17.5 34C26.6127 34 34 26.6127 34 17.5Z" stroke="black" stroke-width="1.5"/>
<path d="M22.9844 12.0959C24.4609 13.5314 25.375 15.4112 25.375 17.462C25.375 21.632 21.7891 25.0499 17.4648 25.0499C16.1641 25.0499 14.8984 24.7081 13.7383 24.1271L9.625 25.1525L10.7148 21.2218C10.0469 20.0939 9.66016 18.7951 9.66016 17.4279C9.66016 13.258 13.1758 9.84 17.4648 9.84C19.5742 9.84 21.543 10.6603 22.9844 12.0959ZM17.4648 23.7512C21.0508 23.7512 24.0391 20.9142 24.0391 17.462C24.0391 15.7531 23.3008 14.1808 22.0703 12.9846C20.8398 11.7883 19.2227 11.1388 17.5 11.1388C13.9141 11.1388 10.9961 13.9758 10.9961 17.4279C10.9961 18.6241 11.3477 19.7862 11.9805 20.8116L12.1562 21.0509L11.4883 23.3752L13.9492 22.7258L14.1602 22.8624C15.1797 23.4435 16.3047 23.7512 17.4648 23.7512ZM21.0508 19.0343C21.2266 19.1369 21.3672 19.171 21.4023 19.2736C21.4727 19.3419 21.4727 19.7179 21.2969 20.1623C21.1211 20.6066 20.3477 21.0168 19.9961 21.0509C19.3633 21.1535 18.8711 21.1193 17.6406 20.5724C15.6719 19.7521 14.4062 17.838 14.3008 17.7355C14.1953 17.5987 13.5273 16.7101 13.5273 15.7531C13.5273 14.8302 14.0195 14.3859 14.1953 14.1808C14.3711 13.9758 14.582 13.9415 14.7227 13.9415C14.8281 13.9415 14.9688 13.9415 15.0742 13.9415C15.2148 13.9415 15.3555 13.9074 15.5312 14.2834C15.6719 14.6593 16.0938 15.5822 16.1289 15.6847C16.1641 15.7873 16.1992 15.8898 16.1289 16.0266C15.7773 16.7443 15.3555 16.7101 15.5664 17.0519C16.3398 18.3165 17.0781 18.7609 18.2383 19.3078C18.4141 19.4103 18.5195 19.3762 18.6602 19.2736C18.7656 19.1369 19.1523 18.6925 19.2578 18.5217C19.3984 18.3165 19.5391 18.3508 19.7148 18.4191C19.8906 18.4874 20.8398 18.9318 21.0508 19.0343Z" fill="black"/>
</g>
<defs>
<clipPath id="clip0_7_6">
<rect width="35" height="35" fill="white"/>
</clipPath>
</defs>
</svg>
