<svg width="35" height="35" viewBox="0 0 35 35" fill="none" xmlns="http://www.w3.org/2000/svg">
<g clip-path="url(#clip0_7_3)">
<path d="M25.6687 13.5133C26.0437 14.7893 26.0437 17.5237 26.0437 17.5237C26.0437 17.5237 26.0437 20.2277 25.6687 21.5341C25.4813 22.2633 24.8875 22.8101 24.1687 22.9924C22.825 23.3267 17.5125 23.3267 17.5125 23.3267C17.5125 23.3267 12.1687 23.3267 10.825 22.9924C10.1063 22.8101 9.51245 22.2633 9.32495 21.5341C8.94995 20.2277 8.94995 17.5237 8.94995 17.5237C8.94995 17.5237 8.94995 14.7893 9.32495 13.5133C9.51245 12.7841 10.1063 12.2069 10.825 12.0246C12.1687 11.66 17.5125 11.66 17.5125 11.66C17.5125 11.66 22.825 11.66 24.1687 12.0246C24.8875 12.2069 25.4813 12.7841 25.6687 13.5133ZM15.7625 19.9847L20.2 17.5237L15.7625 15.0628V19.9847Z" fill="black"/>
<path d="M34 17.5C34 8.3873 26.6127 1 17.5 1C8.3873 1 1 8.3873 1 17.5C1 26.6127 8.3873 34 17.5 34C26.6127 34 34 26.6127 34 17.5Z" stroke="black" stroke-width="1.5"/>
</g>
<defs>
<clipPath id="clip0_7_3">
<rect width="35" height="35" fill="white"/>
</clipPath>
</defs>
</svg>
